<?xml version="1.0" encoding="UTF-8"?>
<svg width="98.2972708px" height="76.3491773px" viewBox="0 0 98.2972708 76.3491773" version="1.1" xmlns="http://www.w3.org/2000/svg" xmlns:xlink="http://www.w3.org/1999/xlink">
    <title>Group 7</title>
    <defs>
        <circle id="path-1" cx="25" cy="24.2" r="20"></circle>
        <filter x="-3.8%" y="-3.8%" width="107.5%" height="107.5%" filterUnits="objectBoundingBox" id="filter-2">
            <feGaussianBlur stdDeviation="1" in="SourceAlpha" result="shadowBlurInner1"></feGaussianBlur>
            <feOffset dx="0" dy="1" in="shadowBlurInner1" result="shadowOffsetInner1"></feOffset>
            <feComposite in="shadowOffsetInner1" in2="SourceAlpha" operator="arithmetic" k2="-1" k3="1" result="shadowInnerInner1"></feComposite>
            <feColorMatrix values="0 0 0 0 0   0 0 0 0 0   0 0 0 0 0  0 0 0 0.5 0" type="matrix" in="shadowInnerInner1"></feColorMatrix>
        </filter>
    </defs>
    <g id="Page-1" stroke="none" stroke-width="1" fill="none" fill-rule="evenodd">
        <g id="Extra-Large-Copy" transform="translate(-687.000000, -85.825411)">
            <g id="Group-2-Copy" transform="translate(610.000000, 49.000000)">
                <g id="Group-7" transform="translate(77.000000, 40.129478)">
                    <g id="Group-3" transform="translate(25.000000, 9.870522)">
                        <g id="Oval-Copy">
                            <g id="path-4-link" fill="#FFFFFF">
                                <circle id="path-4" cx="25" cy="25" r="25"></circle>
                            </g>
                            <g id="path-4-link" fill="#FFFFFF" fill-rule="nonzero">
                                <circle id="path-4" cx="25" cy="25" r="25"></circle>
                            </g>
                            <circle id="Oval" stroke="#FFFFFF" stroke-width="29" cx="25" cy="25" r="23.6745887"></circle>
                        </g>
                        <g id="Oval" fill="black" fill-opacity="1">
                            <use filter="url(#filter-2)" xlink:href="#path-1"></use>
                        </g>
                    </g>
                    <path d="M6.33098426,1.50289315 C6.42332029,1.50289315 6.55647084,1.61149012 6.73043591,1.82868406 L6.73043591,18.8374697 C7.04545952,19.1714972 7.27774304,19.338511 7.42728647,19.338511 C7.57682991,19.338511 7.77200098,19.1714972 8.01279971,18.8374697 L8.40014248,2.01108194 L8.66376707,1.6595382 C8.7993714,1.6158679 8.90941417,1.6158679 8.99389538,1.6595382 C9.0783766,1.70320849 9.19502371,1.82038974 9.34383671,2.01108194 L9.99015561,21.0043816 C10.023911,21.5283108 9.97085857,22.060855 9.83099827,22.602014 C9.92483199,22.9671082 9.97533232,23.3499262 9.97533232,23.7445391 C9.97533232,25.7069036 8.7264805,27.377583 6.98019222,28.0051621 C6.916831,28.0916557 6.83313394,28.1875361 6.73043591,28.2915736 L8.01279971,69.7834983 C7.6605792,70.0968723 7.41167473,70.3511618 7.26608631,70.5463669 C7.12049789,70.741572 6.94194776,71.0604141 6.73043591,71.5028932 L4.35563804,71.5028932 C4.19340656,71.0575063 4.02135963,70.7386643 3.83949726,70.5463669 C3.65763489,70.3540696 3.28765109,70.09978 2.72954587,69.7834983 L3.68769595,28.2915736 C3.66358171,28.2530532 3.63973185,28.2149107 3.61614638,28.1771461 C1.55266315,27.7580515 2.67962289e-16,25.9326173 0,23.7445391 C-7.23099291e-17,23.1540838 0.113064368,22.590036 0.318723834,22.0728651 C0.216744525,21.7495618 0.111855463,21.3927723 0.00470444418,21.0043816 L1.41452884,2.41285936 L1.41452884,1.82868406 C1.5994829,1.61149012 1.74276433,1.50289315 1.84437315,1.50289315 C1.94598196,1.50289315 2.09616423,1.61149012 2.29491995,1.82868406 L2.38253285,18.8374697 C2.58294345,19.0539734 2.73621715,19.1622252 2.84235396,19.1622252 C2.94849077,19.1622252 3.1007534,19.0539734 3.29914184,18.8374697 L3.68769595,1.82868406 C3.90497404,1.61149012 4.06793261,1.50289315 4.17657166,1.50289315 C4.28521071,1.50289315 4.4430524,1.61149012 4.65009674,1.82868406 L4.65009674,18.8374697 C4.73582464,19.0063851 4.81266964,19.1333125 4.88063174,19.218252 L5.21966158,19.2190247 C5.2885678,19.1346234 5.36808084,19.0074384 5.45820071,18.8374697 L5.93130126,1.82868406 C6.10542055,1.61149012 6.23864822,1.50289315 6.33098426,1.50289315 Z" id="Combined-Shape" fill="#FFFFFF"></path>
                    <path d="M91.5882362,66.7715148 C92.0320193,68.1714559 92.3683956,69.0490315 92.5973651,69.4042416 C92.9271433,69.9158404 93.3749956,69.937937 93.6188458,69.9661431 C93.9352282,70.0027389 94.6334478,70.1385818 95.1751184,69.4042416 C95.3822004,69.1235015 95.6401354,68.4140588 95.9489233,67.2759136 L95.9489233,40.0316186 C96.1140728,29.2236412 96.3624623,21.102378 96.6940919,15.667829 C97.0257215,10.2332799 97.5601145,5.5267686 98.2972708,1.54829497 C97.9323033,0.70902033 97.5297862,0.214317584 97.0897195,0.0641867284 C96.6496529,-0.0859441276 95.9339975,0.0272887345 94.9427535,0.403885315 C94.4189624,1.16839623 93.9776599,1.96928369 93.6188458,2.8065477 C93.2600318,3.64381172 92.8329664,4.86919168 92.3376497,6.48268758 C91.584974,10.3252182 91.0714162,14.0863156 90.7969764,17.7659797 C90.5225365,21.4456438 90.355968,26.8036171 90.2972708,33.8398995 C91.4349918,34.9834399 92.2016899,35.9268982 92.5973651,36.6702744 C92.9930403,37.4136506 93.2191489,38.3354314 93.275691,39.4356168 C92.9609659,46.5443567 92.7348572,51.2793761 92.5973651,53.6406749 C92.5375172,54.6685056 92.3889286,55.5301418 92.3376497,56.3608342 C92.1096613,60.0541277 91.8598569,63.5243545 91.5882362,66.7715148 Z" id="Path-3" fill="#FFFFFF"></path>
                </g>
            </g>
        </g>
    </g>
</svg>